<mxfile host="app.diagrams.net" modified="2023-11-26T00:31:08.744Z" agent="Mozilla/5.0 (Windows NT 10.0; Win64; x64) AppleWebKit/537.36 (KHTML, like Gecko) Chrome/119.0.0.0 Safari/537.36" etag="ojUH8Zp44egPq4eaJ1gf" version="22.1.4" type="github">
  <diagram name="Page-1" id="CEsR3wwkdDS5OMM7TD4g">
    <mxGraphModel dx="1817" dy="786" grid="1" gridSize="10" guides="1" tooltips="1" connect="1" arrows="1" fold="1" page="1" pageScale="1" pageWidth="827" pageHeight="1169" math="0" shadow="0">
      <root>
        <mxCell id="0" />
        <mxCell id="1" parent="0" />
        <mxCell id="yh7DX0qr-WpUJT2d_ycB-38" style="edgeStyle=orthogonalEdgeStyle;rounded=0;orthogonalLoop=1;jettySize=auto;html=1;exitX=1;exitY=0.5;exitDx=0;exitDy=0;entryX=0;entryY=0.5;entryDx=0;entryDy=0;" edge="1" parent="1" source="yh7DX0qr-WpUJT2d_ycB-28" target="yh7DX0qr-WpUJT2d_ycB-22">
          <mxGeometry relative="1" as="geometry">
            <mxPoint x="226.1400000000002" y="335" as="sourcePoint" />
          </mxGeometry>
        </mxCell>
        <mxCell id="yh7DX0qr-WpUJT2d_ycB-63" style="edgeStyle=orthogonalEdgeStyle;rounded=0;orthogonalLoop=1;jettySize=auto;html=1;exitX=0.5;exitY=1;exitDx=0;exitDy=0;entryX=0;entryY=0.5;entryDx=0;entryDy=0;" edge="1" parent="1" source="yh7DX0qr-WpUJT2d_ycB-28" target="yh7DX0qr-WpUJT2d_ycB-37">
          <mxGeometry relative="1" as="geometry" />
        </mxCell>
        <mxCell id="yh7DX0qr-WpUJT2d_ycB-28" value="" style="ellipse;whiteSpace=wrap;html=1;aspect=fixed;" vertex="1" parent="1">
          <mxGeometry x="52" y="278" width="114" height="114" as="geometry" />
        </mxCell>
        <mxCell id="yh7DX0qr-WpUJT2d_ycB-48" style="edgeStyle=orthogonalEdgeStyle;rounded=0;orthogonalLoop=1;jettySize=auto;html=1;exitX=1;exitY=0.5;exitDx=0;exitDy=0;entryX=0;entryY=0.5;entryDx=0;entryDy=0;shape=link;" edge="1" parent="1" source="yh7DX0qr-WpUJT2d_ycB-22" target="yh7DX0qr-WpUJT2d_ycB-10">
          <mxGeometry relative="1" as="geometry" />
        </mxCell>
        <mxCell id="yh7DX0qr-WpUJT2d_ycB-66" style="edgeStyle=orthogonalEdgeStyle;rounded=0;orthogonalLoop=1;jettySize=auto;html=1;exitX=1;exitY=0.25;exitDx=0;exitDy=0;entryX=0.5;entryY=1;entryDx=0;entryDy=0;" edge="1" parent="1" source="yh7DX0qr-WpUJT2d_ycB-22" target="yh7DX0qr-WpUJT2d_ycB-36">
          <mxGeometry relative="1" as="geometry" />
        </mxCell>
        <mxCell id="yh7DX0qr-WpUJT2d_ycB-22" value="" style="rounded=1;whiteSpace=wrap;html=1;" vertex="1" parent="1">
          <mxGeometry x="349.14" y="230" width="200" height="210" as="geometry" />
        </mxCell>
        <mxCell id="yh7DX0qr-WpUJT2d_ycB-16" value="Blockchain" style="shape=image;html=1;verticalAlign=top;verticalLabelPosition=bottom;labelBackgroundColor=#ffffff;imageAspect=0;aspect=fixed;image=https://cdn1.iconfinder.com/data/icons/cryptocurrency-blockchain-fintech-free/32/Cryptocurrency_blockchain_data-37-128.png" vertex="1" parent="1">
          <mxGeometry x="387.14" y="260" width="128" height="128" as="geometry" />
        </mxCell>
        <mxCell id="yh7DX0qr-WpUJT2d_ycB-39" value="" style="group" vertex="1" connectable="0" parent="1">
          <mxGeometry x="70" y="290" width="78" height="80" as="geometry" />
        </mxCell>
        <mxCell id="yh7DX0qr-WpUJT2d_ycB-24" value="" style="sketch=0;pointerEvents=1;shadow=0;dashed=0;html=1;strokeColor=none;fillColor=#505050;labelPosition=center;verticalLabelPosition=bottom;verticalAlign=top;outlineConnect=0;align=center;shape=mxgraph.office.users.user;" vertex="1" parent="yh7DX0qr-WpUJT2d_ycB-39">
          <mxGeometry x="16" y="30" width="46" height="50" as="geometry" />
        </mxCell>
        <mxCell id="yh7DX0qr-WpUJT2d_ycB-25" value="Voters" style="sketch=0;outlineConnect=0;fontColor=#232F3E;gradientColor=none;fillColor=#232F3D;strokeColor=none;dashed=0;verticalLabelPosition=bottom;verticalAlign=top;align=center;html=1;fontSize=12;fontStyle=0;aspect=fixed;pointerEvents=1;shape=mxgraph.aws4.users;" vertex="1" parent="yh7DX0qr-WpUJT2d_ycB-39">
          <mxGeometry width="78" height="78" as="geometry" />
        </mxCell>
        <mxCell id="yh7DX0qr-WpUJT2d_ycB-42" value="" style="group" vertex="1" connectable="0" parent="1">
          <mxGeometry x="45.86" y="90" width="114" height="114" as="geometry" />
        </mxCell>
        <mxCell id="yh7DX0qr-WpUJT2d_ycB-27" value="v" style="ellipse;whiteSpace=wrap;html=1;aspect=fixed;" vertex="1" parent="yh7DX0qr-WpUJT2d_ycB-42">
          <mxGeometry width="114" height="114" as="geometry" />
        </mxCell>
        <mxCell id="yh7DX0qr-WpUJT2d_ycB-17" value="Candidates" style="sketch=0;pointerEvents=1;shadow=0;dashed=0;html=1;strokeColor=none;fillColor=#505050;labelPosition=center;verticalLabelPosition=bottom;verticalAlign=top;outlineConnect=0;align=center;shape=mxgraph.office.users.meeting;" vertex="1" parent="yh7DX0qr-WpUJT2d_ycB-42">
          <mxGeometry x="13" y="20.310000000000002" width="86" height="50" as="geometry" />
        </mxCell>
        <mxCell id="yh7DX0qr-WpUJT2d_ycB-43" value="" style="group" vertex="1" connectable="0" parent="1">
          <mxGeometry x="392.14" y="51" width="114" height="114" as="geometry" />
        </mxCell>
        <mxCell id="yh7DX0qr-WpUJT2d_ycB-29" value="" style="ellipse;whiteSpace=wrap;html=1;aspect=fixed;" vertex="1" parent="yh7DX0qr-WpUJT2d_ycB-43">
          <mxGeometry width="114" height="114" as="geometry" />
        </mxCell>
        <mxCell id="yh7DX0qr-WpUJT2d_ycB-15" value="Election Authority" style="shape=mxgraph.cisco.buildings.government_building;html=1;pointerEvents=1;dashed=0;fillColor=#036897;strokeColor=#ffffff;strokeWidth=2;verticalLabelPosition=bottom;verticalAlign=top;align=center;outlineConnect=0;" vertex="1" parent="yh7DX0qr-WpUJT2d_ycB-43">
          <mxGeometry x="16.5" y="9" width="84.1" height="61.31" as="geometry" />
        </mxCell>
        <mxCell id="yh7DX0qr-WpUJT2d_ycB-44" style="edgeStyle=orthogonalEdgeStyle;rounded=0;orthogonalLoop=1;jettySize=auto;html=1;exitX=0.5;exitY=1;exitDx=0;exitDy=0;entryX=0.25;entryY=0;entryDx=0;entryDy=0;" edge="1" parent="1" source="yh7DX0qr-WpUJT2d_ycB-27" target="yh7DX0qr-WpUJT2d_ycB-22">
          <mxGeometry relative="1" as="geometry">
            <Array as="points">
              <mxPoint x="103" y="230" />
            </Array>
          </mxGeometry>
        </mxCell>
        <mxCell id="yh7DX0qr-WpUJT2d_ycB-47" style="edgeStyle=orthogonalEdgeStyle;rounded=0;orthogonalLoop=1;jettySize=auto;html=1;exitX=0.5;exitY=1;exitDx=0;exitDy=0;entryX=0.5;entryY=0;entryDx=0;entryDy=0;" edge="1" parent="1" source="yh7DX0qr-WpUJT2d_ycB-29" target="yh7DX0qr-WpUJT2d_ycB-22">
          <mxGeometry relative="1" as="geometry" />
        </mxCell>
        <mxCell id="yh7DX0qr-WpUJT2d_ycB-49" value="" style="group" vertex="1" connectable="0" parent="1">
          <mxGeometry x="660.14" y="280" width="110" height="110" as="geometry" />
        </mxCell>
        <mxCell id="yh7DX0qr-WpUJT2d_ycB-32" value="" style="rounded=1;whiteSpace=wrap;html=1;" vertex="1" parent="yh7DX0qr-WpUJT2d_ycB-49">
          <mxGeometry x="0.14999999999997726" width="108.42" height="104" as="geometry" />
        </mxCell>
        <mxCell id="yh7DX0qr-WpUJT2d_ycB-10" value="Mining nodes" style="shape=image;html=1;verticalAlign=top;verticalLabelPosition=bottom;labelBackgroundColor=#ffffff;imageAspect=0;aspect=fixed;image=https://cdn0.iconfinder.com/data/icons/world-issues/500/pickaxe-128.png;fontSize=16;" vertex="1" parent="yh7DX0qr-WpUJT2d_ycB-49">
          <mxGeometry width="110" height="110" as="geometry" />
        </mxCell>
        <mxCell id="yh7DX0qr-WpUJT2d_ycB-52" value="1. Voters Registration" style="text;html=1;strokeColor=none;fillColor=none;align=center;verticalAlign=middle;whiteSpace=wrap;rounded=0;" vertex="1" parent="1">
          <mxGeometry x="184.57" y="300" width="60" height="30" as="geometry" />
        </mxCell>
        <mxCell id="yh7DX0qr-WpUJT2d_ycB-54" value="2. Candidates Registration" style="text;html=1;strokeColor=none;fillColor=none;align=center;verticalAlign=middle;whiteSpace=wrap;rounded=0;" vertex="1" parent="1">
          <mxGeometry x="170" y="194" width="110" height="30" as="geometry" />
        </mxCell>
        <mxCell id="yh7DX0qr-WpUJT2d_ycB-55" value="3. Candidate Management" style="text;html=1;strokeColor=none;fillColor=none;align=center;verticalAlign=middle;whiteSpace=wrap;rounded=0;" vertex="1" parent="1">
          <mxGeometry x="380" y="175.2" width="60" height="30" as="geometry" />
        </mxCell>
        <mxCell id="yh7DX0qr-WpUJT2d_ycB-58" value="5. Audit Votes" style="text;html=1;strokeColor=none;fillColor=none;align=center;verticalAlign=middle;whiteSpace=wrap;rounded=0;" vertex="1" parent="1">
          <mxGeometry x="578.71" y="350" width="60" height="30" as="geometry" />
        </mxCell>
        <mxCell id="yh7DX0qr-WpUJT2d_ycB-59" value="4. Cast Votes through blockchain" style="text;html=1;strokeColor=none;fillColor=none;align=center;verticalAlign=middle;whiteSpace=wrap;rounded=0;" vertex="1" parent="1">
          <mxGeometry x="311" y="479" width="160.86" height="30" as="geometry" />
        </mxCell>
        <mxCell id="yh7DX0qr-WpUJT2d_ycB-60" value="" style="group" vertex="1" connectable="0" parent="1">
          <mxGeometry x="590" y="59" width="121.14" height="116.2" as="geometry" />
        </mxCell>
        <mxCell id="yh7DX0qr-WpUJT2d_ycB-36" value="" style="rounded=1;whiteSpace=wrap;html=1;" vertex="1" parent="yh7DX0qr-WpUJT2d_ycB-60">
          <mxGeometry width="121.14" height="116.19999999999999" as="geometry" />
        </mxCell>
        <mxCell id="yh7DX0qr-WpUJT2d_ycB-12" value="Results" style="shape=image;html=1;verticalAlign=top;verticalLabelPosition=bottom;labelBackgroundColor=#ffffff;imageAspect=0;aspect=fixed;image=https://cdn1.iconfinder.com/data/icons/seo-and-web-development-6/32/development_computer_website_check_result-128.png" vertex="1" parent="yh7DX0qr-WpUJT2d_ycB-60">
          <mxGeometry x="19.693064708217545" y="14.018057663125955" width="82.16072561732653" height="82.16072561732653" as="geometry" />
        </mxCell>
        <mxCell id="yh7DX0qr-WpUJT2d_ycB-61" value="" style="group" vertex="1" connectable="0" parent="1">
          <mxGeometry x="166" y="395.02" width="151.14" height="144.98000000000002" as="geometry" />
        </mxCell>
        <mxCell id="yh7DX0qr-WpUJT2d_ycB-37" value="" style="rounded=1;whiteSpace=wrap;html=1;" vertex="1" parent="yh7DX0qr-WpUJT2d_ycB-61">
          <mxGeometry width="151.14" height="144.98" as="geometry" />
        </mxCell>
        <mxCell id="yh7DX0qr-WpUJT2d_ycB-11" value="Voting" style="sketch=0;html=1;aspect=fixed;strokeColor=none;shadow=0;fillColor=#3B8DF1;verticalAlign=top;labelPosition=center;verticalLabelPosition=bottom;shape=mxgraph.gcp2.check_2" vertex="1" parent="yh7DX0qr-WpUJT2d_ycB-61">
          <mxGeometry x="25.57000000000005" y="20" width="100" height="100" as="geometry" />
        </mxCell>
        <mxCell id="yh7DX0qr-WpUJT2d_ycB-64" style="edgeStyle=orthogonalEdgeStyle;rounded=0;orthogonalLoop=1;jettySize=auto;html=1;exitX=1;exitY=0.5;exitDx=0;exitDy=0;entryX=0.5;entryY=1;entryDx=0;entryDy=0;" edge="1" parent="1" source="yh7DX0qr-WpUJT2d_ycB-37" target="yh7DX0qr-WpUJT2d_ycB-22">
          <mxGeometry relative="1" as="geometry" />
        </mxCell>
        <mxCell id="yh7DX0qr-WpUJT2d_ycB-68" value="6. Close voting and get results" style="text;html=1;strokeColor=none;fillColor=none;align=center;verticalAlign=middle;whiteSpace=wrap;rounded=0;" vertex="1" parent="1">
          <mxGeometry x="515.14" y="130" width="60" height="30" as="geometry" />
        </mxCell>
        <mxCell id="yh7DX0qr-WpUJT2d_ycB-70" style="edgeStyle=orthogonalEdgeStyle;rounded=0;orthogonalLoop=1;jettySize=auto;html=1;exitX=0;exitY=0.5;exitDx=0;exitDy=0;entryX=1;entryY=0.5;entryDx=0;entryDy=0;" edge="1" parent="1" source="yh7DX0qr-WpUJT2d_ycB-36" target="yh7DX0qr-WpUJT2d_ycB-29">
          <mxGeometry relative="1" as="geometry">
            <mxPoint x="540" y="80" as="targetPoint" />
          </mxGeometry>
        </mxCell>
      </root>
    </mxGraphModel>
  </diagram>
</mxfile>
